<svg width="32" height="32" viewBox="0 0 32 32" fill="none" xmlns="http://www.w3.org/2000/svg">
<path d="M15.6424 30.3202C23.8422 30.3202 30.4895 23.7099 30.4895 15.5556C30.4895 7.40133 23.8422 0.791 15.6424 0.791C7.44257 0.791 0.795303 7.40133 0.795303 15.5556C0.795303 23.7099 7.44257 30.3202 15.6424 30.3202Z" fill="white"/>
<path d="M15.6425 0C7.00336 0 0 6.96446 0 15.5556C0 24.1467 7.00336 31.1111 15.6425 31.1111C24.2816 31.1111 31.2849 24.1467 31.2849 15.5556C31.2849 6.96446 24.2816 0 15.6425 0ZM15.6425 1.58192C23.403 1.58192 29.6942 7.83813 29.6942 15.5556C29.6942 23.273 23.403 29.5292 15.6425 29.5292C7.88192 29.5292 1.59076 23.273 1.59076 15.5556C1.59076 7.83813 7.88192 1.58192 15.6425 1.58192Z" fill="#4000BF"/>
<path fill-rule="evenodd" clip-rule="evenodd" d="M15.8192 4.48216C21.9691 4.48216 26.9546 9.43988 26.9546 15.5556C26.9546 21.6713 21.9691 26.6291 15.8192 26.6291C9.66941 26.6291 4.68396 21.6713 4.68396 15.5556C4.68396 14.061 4.98172 12.6355 5.5215 11.3346C6.30963 12.402 7.58063 13.0949 9.01435 13.0949C11.406 13.0949 13.3448 11.1668 13.3448 8.7885C13.3448 7.36274 12.648 6.09881 11.5746 5.31507C12.8828 4.77828 14.3163 4.48216 15.8192 4.48216Z" fill="url(#paint0_linear_102_2334)"/>
<defs>
<linearGradient id="paint0_linear_102_2334" x1="15.8192" y1="26.6291" x2="15.8192" y2="4.48216" gradientUnits="userSpaceOnUse">
<stop stop-color="#7400E1"/>
<stop offset="1" stop-color="#4000BF"/>
</linearGradient>
</defs>
</svg>
