<svg width="32" height="32" viewBox="0 0 32 32" fill="none" xmlns="http://www.w3.org/2000/svg">
<path d="M31.2849 0H0V31.1111H31.2849V0Z" fill="#F7DF1E"/>
<path d="M21.0155 24.3057C21.6457 25.3289 22.4655 26.081 23.9156 26.081C25.1337 26.081 25.9119 25.4756 25.9119 24.639C25.9119 23.6366 25.1124 23.2815 23.7716 22.6983L23.0366 22.3847C20.9152 21.4859 19.5059 20.36 19.5059 17.9798C19.5059 15.7872 21.1858 14.118 23.8113 14.118C25.6804 14.118 27.0242 14.765 27.9926 16.4588L25.7033 17.9205C25.1993 17.0217 24.6555 16.6677 23.8113 16.6677C22.9502 16.6677 22.4045 17.2109 22.4045 17.9205C22.4045 18.7975 22.9507 19.1526 24.212 19.6958L24.947 20.0089C27.4448 21.0741 28.8551 22.16 28.8551 24.6015C28.8551 27.2336 26.7759 28.6756 23.9836 28.6756C21.2534 28.6756 19.4895 27.3817 18.6264 25.6859L21.0155 24.3057ZM10.6304 24.559C11.0922 25.3738 11.5124 26.0627 12.5224 26.0627C13.4883 26.0627 14.0976 25.6869 14.0976 24.2257V14.285H17.0374V24.2652C17.0374 27.2924 15.2526 28.6701 12.6475 28.6701C10.2937 28.6701 8.9306 27.4588 8.23737 25.9998L10.6304 24.559Z" fill="black"/>
</svg>
