<svg width="32" height="16" viewBox="0 0 32 16" fill="none" xmlns="http://www.w3.org/2000/svg">
<path fill-rule="evenodd" clip-rule="evenodd" d="M15.6425 15.7663C24.2816 15.7663 31.2849 12.2367 31.2849 7.88313C31.2849 3.52953 24.2816 0 15.6425 0C7.00353 0 0 3.52953 0 7.88313C0 12.2367 7.00353 15.7663 15.6425 15.7663Z" fill="#6E81B6"/>
<path fill-rule="evenodd" clip-rule="evenodd" d="M18.8126 10.431L19.5885 6.45986C19.7637 5.56356 19.618 4.89505 19.1559 4.47257C18.7082 4.06383 17.9482 3.865 16.8326 3.865H15.4888L15.8732 1.89747C15.8804 1.86085 15.8794 1.8231 15.8702 1.78693C15.861 1.75075 15.8438 1.71705 15.82 1.68825C15.7961 1.65944 15.7662 1.63624 15.7322 1.62032C15.6983 1.60439 15.6612 1.59613 15.6237 1.59613H13.7691C13.6473 1.59613 13.5427 1.68209 13.5194 1.80097L12.6953 6.01688C12.6204 5.54249 12.4358 5.13469 12.1403 4.79817C11.5963 4.17894 10.7358 3.865 9.58259 3.865H5.98795C5.86614 3.865 5.76154 3.95097 5.73827 4.06966L4.07052 12.6034C4.05596 12.6777 4.07544 12.7541 4.12386 12.8124C4.17209 12.8709 4.24397 12.9046 4.3202 12.9046H6.1894C6.31121 12.9046 6.41581 12.8186 6.43908 12.6995L6.84254 10.6355H8.23394C8.96406 10.6355 9.57767 10.5569 10.0566 10.4019C10.5463 10.2435 10.9971 9.9749 11.3943 9.60509C11.7153 9.31184 11.9805 8.98342 12.1846 8.62923L11.8515 10.3342C11.8369 10.4085 11.8564 10.4852 11.9048 10.5432C11.953 10.6017 12.0251 10.6353 12.1011 10.6353H13.9558C14.0776 10.6353 14.1822 10.5494 14.2055 10.4307L15.1208 5.74639H16.3934C16.9357 5.74639 17.0946 5.8538 17.1379 5.89988C17.177 5.94201 17.2584 6.09043 17.167 6.55823L16.4293 10.334C16.4222 10.3706 16.4234 10.4083 16.4327 10.4444C16.4419 10.4805 16.4591 10.5142 16.4829 10.5429C16.5068 10.5717 16.5367 10.5949 16.5706 10.6108C16.6045 10.6268 16.6415 10.6351 16.679 10.6351H18.5631C18.6221 10.6353 18.6792 10.6149 18.7248 10.5777C18.7703 10.5404 18.8014 10.4886 18.8126 10.431V10.431ZM10.2142 7.14981C10.0976 7.74515 9.87823 8.1697 9.56159 8.41178C9.24003 8.65838 8.72573 8.78328 8.03287 8.78328H7.20438L7.80343 5.71761H8.87459C9.66146 5.71761 9.97848 5.88483 10.1058 6.02497C10.2823 6.21946 10.3197 6.60865 10.2142 7.14981V7.14981ZM26.6248 4.79817C26.081 4.17894 25.2205 3.865 24.0673 3.865H20.4726C20.3506 3.865 20.2462 3.95097 20.2229 4.06966L18.5554 12.6034C18.5406 12.6777 18.5601 12.7541 18.6085 12.8124C18.6569 12.8707 18.729 12.9046 18.8047 12.9046H20.6741C20.7961 12.9046 20.9005 12.8186 20.9237 12.6995L21.3272 10.6355H22.7188C23.4491 10.6355 24.0621 10.5569 24.5413 10.4019C25.0312 10.2435 25.4819 9.9749 25.8789 9.60509C26.2103 9.30244 26.4829 8.96216 26.6895 8.5948C26.896 8.22744 27.0441 7.81776 27.1306 7.37685C27.343 6.28944 27.1729 5.42192 26.6248 4.79817V4.79817ZM24.8049 7.14981C24.6882 7.74515 24.4688 8.1697 24.1526 8.41178C23.8308 8.65838 23.3165 8.78328 22.6238 8.78328H21.7952L22.394 5.71761H23.4654C24.2522 5.71761 24.5693 5.88483 24.6967 6.02497C24.8728 6.21946 24.9105 6.60865 24.8049 7.14981V7.14981Z" fill="white"/>
<path fill-rule="evenodd" clip-rule="evenodd" d="M8.82138 5.46466C9.53145 5.46466 10.0049 5.59502 10.2415 5.85572C10.478 6.11643 10.5343 6.56411 10.4106 7.1982C10.2813 7.85862 10.0323 8.33 9.66348 8.61253C9.29464 8.89505 8.73323 9.03613 7.97965 9.03613H6.84247L7.54044 5.46466H8.82138ZM4.26678 12.6516H6.13599L6.57955 10.3829H8.18072C8.8872 10.3829 9.46847 10.309 9.9247 10.1613C10.3809 10.0137 10.7957 9.76634 11.1689 9.41891C11.4822 9.13281 11.7356 8.8168 11.9297 8.47145C12.1236 8.1261 12.2613 7.74519 12.3428 7.32855C12.5407 6.31695 12.3914 5.52899 11.8955 4.96469C11.3997 4.4002 10.6108 4.11805 9.52937 4.11805H5.93473L4.26678 12.6516V12.6516ZM13.7157 1.84918H15.5703L15.127 4.11805H16.7794C17.8186 4.11805 18.536 4.29825 18.9306 4.65884C19.3252 5.01943 19.4434 5.60386 19.2857 6.41175L18.5097 10.3829H16.6256L17.3633 6.607C17.4471 6.17738 17.4164 5.8845 17.2706 5.72819C17.1248 5.57207 16.8144 5.49382 16.34 5.49382H14.8578L13.9024 10.3829H12.0477L13.7157 1.84918ZM23.4122 5.46466C24.1223 5.46466 24.5955 5.59502 24.8323 5.85572C25.0688 6.11643 25.125 6.56411 25.0013 7.1982C24.8723 7.85862 24.6233 8.33 24.2543 8.61253C23.8856 8.89505 23.324 9.03613 22.5708 9.03613H21.4337L22.1314 5.46466H23.4122V5.46466ZM18.8572 12.6516H20.7266L21.17 10.3829H22.7712C23.4778 10.3829 24.0591 10.309 24.5153 10.1613C24.9716 10.0137 25.3864 9.76634 25.7596 9.41891C26.0728 9.13281 26.3263 8.8168 26.5202 8.47145C26.714 8.1261 26.8519 7.74519 26.9336 7.32855C27.1313 6.31695 26.9821 5.52899 26.4863 4.96469C25.9901 4.4002 25.2014 4.11805 24.12 4.11805H20.5254L18.8572 12.6516V12.6516Z" fill="black"/>
</svg>
