<svg width="32" height="24" viewBox="0 0 32 24" fill="none" xmlns="http://www.w3.org/2000/svg">
<path d="M26.7891 13.4124C25.7037 13.418 24.7604 13.6794 23.9705 14.0658C23.6807 13.4919 23.3909 12.9805 23.3398 12.6054C23.283 12.1679 23.2148 11.9008 23.283 11.378C23.3511 10.8552 23.658 10.1108 23.6523 10.054C23.6466 9.99713 23.5841 9.73005 22.9591 9.72437C22.334 9.71869 21.7941 9.8437 21.7316 10.0085C21.6691 10.1733 21.5498 10.5483 21.4702 10.9348C21.3622 11.503 20.2201 13.5317 19.5666 14.5943C19.3563 14.1795 19.1745 13.8158 19.1347 13.526C19.0779 13.0884 19.0097 12.8214 19.0779 12.2986C19.1461 11.7758 19.4529 11.0314 19.4472 10.9745C19.4415 10.9177 19.379 10.6506 18.754 10.6449C18.1289 10.6393 17.589 10.7643 17.5265 10.9291C17.464 11.0939 17.3958 11.4803 17.2651 11.8553C17.1344 12.2304 15.6172 15.6172 15.2194 16.4923C15.0148 16.9412 14.8387 17.2992 14.7136 17.5436C14.7136 17.5436 14.708 17.5606 14.6909 17.589C14.583 17.7993 14.5204 17.9129 14.5204 17.9129C14.5204 17.9129 14.5204 17.9129 14.5204 17.9186C14.4352 18.0721 14.3443 18.2141 14.2988 18.2141C14.2647 18.2141 14.2022 17.805 14.3102 17.2481C14.5375 16.0718 15.0773 14.242 15.0717 14.1795C15.0717 14.1454 15.1739 13.8272 14.7193 13.6624C14.2761 13.4976 14.117 13.7704 14.0772 13.7704C14.0374 13.7704 14.009 13.867 14.009 13.867C14.009 13.867 14.5034 11.8099 13.0657 11.8099C12.1679 11.8099 10.9291 12.793 10.3153 13.6794C9.92893 13.8897 9.10496 14.3386 8.22416 14.8216C7.88889 15.0092 7.54225 15.1967 7.21835 15.3728C7.19562 15.3501 7.17289 15.3217 7.15016 15.299C5.41129 13.4408 2.19496 12.1281 2.33134 9.63345C2.38248 8.72424 2.69502 6.33756 8.50829 3.43945C13.293 1.08119 17.1003 1.73468 17.7595 3.18374C18.7028 5.25219 15.7195 9.0936 10.7756 9.6505C8.88902 9.86075 7.90025 9.13338 7.65022 8.86062C7.38882 8.57649 7.34905 8.55944 7.25244 8.61627C7.09333 8.70151 7.19562 8.95722 7.25244 9.10497C7.40019 9.49138 8.00822 10.1733 9.03677 10.5086C9.94598 10.8041 12.1565 10.9689 14.833 9.93462C17.8277 8.77538 20.1689 5.55336 19.4813 2.85415C18.7937 0.11515 14.2477 -0.788378 9.94598 0.740232C7.38882 1.64944 4.61573 3.08145 2.62115 4.94533C0.251522 7.16153 -0.123526 9.08792 0.0299028 9.89485C0.581112 12.7589 4.53049 14.6227 6.11025 16.0036C6.03069 16.0491 5.95682 16.0888 5.89431 16.1229C5.10443 16.515 2.09267 18.0891 1.34258 19.7541C0.490191 21.6407 1.47896 22.9932 2.13245 23.175C4.16113 23.7376 6.24663 22.7261 7.36609 21.0554C8.48556 19.3847 8.34918 17.214 7.83206 16.2195C7.82638 16.2082 7.8207 16.1968 7.80933 16.1854C8.01391 16.0661 8.22416 15.9411 8.42873 15.8218C8.8322 15.5831 9.22997 15.3615 9.57093 15.1796C9.37772 15.7081 9.23566 16.3389 9.16747 17.2481C9.08223 18.3164 9.51979 19.703 10.0937 20.2485C10.3494 20.4871 10.6506 20.4928 10.8438 20.4928C11.5144 20.4928 11.8155 19.9359 12.1508 19.2768C12.56 18.4698 12.9293 17.5322 12.9293 17.5322C12.9293 17.5322 12.469 20.0666 13.7192 20.0666C14.1738 20.0666 14.6341 19.4756 14.8387 19.1745C14.8387 19.1802 14.8387 19.1802 14.8387 19.1802C14.8387 19.1802 14.85 19.1631 14.8728 19.1233C14.9182 19.0495 14.9466 19.004 14.9466 19.004C14.9466 19.004 14.9466 18.9983 14.9466 18.9926C15.1285 18.6744 15.5376 17.9527 16.1457 16.7537C16.9299 15.208 17.6856 13.276 17.6856 13.276C17.6856 13.276 17.7538 13.7476 17.9868 14.5318C18.1232 14.9921 18.4073 15.4979 18.6346 15.9866C18.4528 16.2423 18.3391 16.3843 18.3391 16.3843C18.3391 16.3843 18.3391 16.3843 18.3448 16.39C18.1971 16.5832 18.0379 16.7935 17.8618 16.9981C17.2424 17.7368 16.5037 18.5835 16.4014 18.8278C16.282 19.1176 16.3105 19.3279 16.5378 19.4984C16.7025 19.6234 16.998 19.6404 17.2992 19.6234C17.8561 19.5836 18.2482 19.4472 18.4414 19.362C18.7426 19.254 19.0949 19.0892 19.4245 18.8449C20.0325 18.396 20.4019 17.7538 20.3678 16.9071C20.3508 16.4412 20.1973 15.9752 20.0098 15.5376C20.0666 15.4581 20.1178 15.3785 20.1746 15.299C21.1349 13.8954 21.8794 12.3554 21.8794 12.3554C21.8794 12.3554 21.9476 12.827 22.1805 13.6112C22.2942 14.009 22.5272 14.4409 22.7317 14.8614C21.8282 15.5945 21.2713 16.4468 21.0724 17.0037C20.7144 18.038 20.9929 18.5039 21.5214 18.6119C21.76 18.663 22.101 18.5494 22.351 18.4414C22.6692 18.3391 23.0443 18.163 23.4023 17.9016C24.0103 17.4527 24.5956 16.8276 24.5615 15.9809C24.5445 15.5945 24.4422 15.2137 24.3001 14.8444C25.0673 14.5261 26.0561 14.35 27.3176 14.4977C30.0225 14.8159 30.5566 16.5037 30.4544 17.214C30.3521 17.9243 29.7838 18.3107 29.5963 18.4301C29.4088 18.5494 29.3463 18.5892 29.3633 18.6744C29.386 18.7994 29.477 18.7937 29.6361 18.771C29.8577 18.7312 31.0567 18.1971 31.1079 16.8901C31.1931 15.2194 29.602 13.3953 26.7891 13.4124ZM5.92272 20.4474C5.02488 21.4248 3.77471 21.7941 3.23487 21.4816C2.65525 21.1463 2.88255 19.703 3.98497 18.6687C4.65551 18.038 5.51926 17.4527 6.0932 17.0947C6.2239 17.0151 6.41711 16.9014 6.65009 16.7594C6.68987 16.7367 6.7126 16.7253 6.7126 16.7253C6.75806 16.6969 6.80352 16.6685 6.84898 16.64C7.25244 18.1175 6.86603 19.4188 5.92272 20.4474ZM12.4577 16.0036C12.1451 16.7651 11.4916 18.7142 11.0939 18.6062C10.7529 18.5153 10.5426 17.0378 11.0257 15.5774C11.27 14.8444 11.7871 13.9692 12.0883 13.6283C12.577 13.0828 13.1168 12.9009 13.2475 13.1225C13.4123 13.4124 12.6509 15.5263 12.4577 16.0036ZM17.8504 18.5835C17.7197 18.6517 17.5947 18.6971 17.5379 18.663C17.4981 18.6403 17.5947 18.5494 17.5947 18.5494C17.5947 18.5494 18.2709 17.822 18.538 17.4924C18.6914 17.2992 18.8733 17.0719 19.0665 16.8162C19.0665 16.8389 19.0665 16.8674 19.0665 16.8901C19.0665 17.7595 18.2255 18.3448 17.8504 18.5835ZM22.0101 17.6345C21.9135 17.5663 21.9305 17.339 22.2544 16.6287C22.3794 16.3502 22.6749 15.8843 23.1807 15.4353C23.2375 15.6172 23.2773 15.7933 23.2716 15.9581C23.2659 17.0549 22.4817 17.464 22.0101 17.6345Z" fill="#CD6799"/>
</svg>
